<?xml version="1.0" encoding="utf-8"?>
<!-- Generator: Adobe Illustrator 22.0.1, SVG Export Plug-In . SVG Version: 6.00 Build 0)  -->
<svg version="1.1" id="Capa_1" xmlns="http://www.w3.org/2000/svg" xmlns:xlink="http://www.w3.org/1999/xlink" x="0px" y="0px"
	 viewBox="0 0 470 470" style="enable-background:new 0 0 470 470;" xml:space="preserve">
<style type="text/css">
	.st0{stroke:#000000;stroke-width:9;stroke-miterlimit:10;}
</style>
<path class="st0" d="M459.5,365.9H457c-3.5-33.2-30-65.5-62.1-74.1l-94-25.3c-28.2-7.6-54.7-38.6-57.7-67.7L229.7,67.2
	c-0.4-3.8-3.6-6.6-7.3-6.6H36.6V38.4c0-4.1-3.3-7.4-7.4-7.4s-7.4,3.3-7.4,7.4v176.2c0,15.4-2.8,37.4-6.1,48.2c0,0,0,0,0,0.1
	c-3.7,12.1-6.7,31.8-6.7,43.9v36.6c-0.9,0.4-1.8,0.9-2.6,1.7c-1.4,1.4-2.2,3.3-2.2,5.2v66.2c0,4.1,3.3,7.4,7.4,7.4h129.8
	c4.1,0,7.4-3.3,7.4-7.4v-23.9l108.5,20.2v3.7c0,4.1,3.3,7.4,7.4,7.4h194.7c4.1,0,7.4-3.3,7.4-7.4v-43.2
	C466.9,369.2,463.6,365.9,459.5,365.9z M391.1,306c25.6,6.9,47.5,33.3,51,59.9H265.5l-39.8-7.4c2.6-11.3,12.8-19.8,24.9-19.8h38.2
	c4.1,0,7.4-3.3,7.4-7.4v-30c0,0,0-20.9,0-20.9c0.3,0.1,0.6,0.2,0.9,0.3L391.1,306z M281.4,274.5v16.3c-34.9-14.9-63.7-52.2-67.5-89
	l-0.9-8.4h14.8l0.7,6.8C231.7,229.9,254,260.2,281.4,274.5z M222.3,139.3h-14.8l-2.5-24.6h14.8L222.3,139.3z M223.8,154.1l2.5,24.6
	h-14.8l-2.5-24.6H223.8z M215.7,75.3l2.5,24.6h-21.5c0,0-108.5,0-108.5,0c-4.1,0-7.4,3.3-7.4,7.4c0,4.1,3.3,7.4,7.4,7.4h101.8
	l2.5,24.6H191c-4.1,0-7.4,3.3-7.4,7.4c0,4.1,3.3,7.4,7.4,7.4h3.2l2.5,24.6H195c-4.1,0-7.4,3.3-7.4,7.4c0,4.1,3.3,7.4,7.4,7.4h3.2
	l1,9.9c4.6,44.6,39.5,88,82.2,103.4v17.2h-30.8c-19.3,0-35.5,13.7-39.5,31.8L142.9,343c-0.4-0.1-0.9-0.1-1.4-0.1l-117.7,0v-36.1
	c0-9.1,2-23.4,4.6-34.2c30.2,2.2,56.9,22,67.5,50.7c1.1,3,3.9,4.8,6.9,4.8c0.8,0,1.7-0.1,2.6-0.5c3.8-1.4,5.8-5.7,4.4-9.5
	c-12.3-33.3-42.8-56.5-77.6-60.1c2.6-12.7,4.5-30.2,4.5-43.5v-99.9h22.1c4.1,0,7.4-3.3,7.4-7.4c0-4.1-3.3-7.4-7.4-7.4H36.6V75.3
	H215.7z M452.1,409.1h-17.7v-5.2c0-4.1-3.3-7.4-7.4-7.4c-4.1,0-7.4,3.3-7.4,7.4v5.2H402v-5.2c0-4.1-3.3-7.4-7.4-7.4
	c-4.1,0-7.4,3.3-7.4,7.4v5.2h-17.7v-5.2c0-4.1-3.3-7.4-7.4-7.4c-4.1,0-7.4,3.3-7.4,7.4v5.2h-17.7v-5.2c0-4.1-3.3-7.4-7.4-7.4
	c-4.1,0-7.4,3.3-7.4,7.4v5.2h-17.7v-5.2c0-4.1-3.3-7.4-7.4-7.4s-7.4,3.3-7.4,7.4v5.2h-17.7v-2.5c0-3.6-2.5-6.6-6-7.3l-123.3-23
	c-2.2-0.4-4.4,0.2-6.1,1.6c-1.7,1.4-2.7,3.5-2.7,5.7v25.4h-17.7v-5.2c0-4.1-3.3-7.4-7.4-7.4c-4.1,0-7.4,3.3-7.4,7.4v5.2H84v-5.2
	c0-4.1-3.3-7.4-7.4-7.4c-4.1,0-7.4,3.3-7.4,7.4v5.2H51.6v-5.2c0-4.1-3.3-7.4-7.4-7.4s-7.4,3.3-7.4,7.4v5.2H19.1v-51.5l121.7,0
	l122.6,22.9c0.4,0.1,0.9,0.1,1.4,0.1h187.3V409.1z"/>
</svg>
