<?xml version="1.0" encoding="iso-8859-1"?>
<!-- Generator: Adobe Illustrator 19.0.0, SVG Export Plug-In . SVG Version: 6.00 Build 0)  -->
<svg version="1.1" id="Capa_1" xmlns="http://www.w3.org/2000/svg" xmlns:xlink="http://www.w3.org/1999/xlink" x="0px" y="0px"
	 viewBox="0 0 512 512" style="enable-background:new 0 0 512 512;" xml:space="preserve">
<g>
	<g>
		<path d="M452,180V0H60v180H0v332h512V180H452z M90,30h332v150H90V30z M150,482h-30V330h30V482z M90,300v-30h332v30H90z M241,482
			h-61V330h61V482z M332,482h-61V330h61V482z M392,482h-30V330h30V482z M482,482h-60V330h30v-90H60v90h30v152H30V210h452V482z"/>
	</g>
</g>
<g>
	<g>
		<polygon points="271,90 271,60 241,60 241,90 211,90 211,120 241,120 241,150 271,150 271,120 301,120 301,90 		"/>
	</g>
</g>
<g>
</g>
<g>
</g>
<g>
</g>
<g>
</g>
<g>
</g>
<g>
</g>
<g>
</g>
<g>
</g>
<g>
</g>
<g>
</g>
<g>
</g>
<g>
</g>
<g>
</g>
<g>
</g>
<g>
</g>
</svg>
