<?xml version="1.0" encoding="utf-8"?>
<!-- Generator: Adobe Illustrator 22.0.1, SVG Export Plug-In . SVG Version: 6.00 Build 0)  -->
<svg version="1.1" id="Layer_1" xmlns="http://www.w3.org/2000/svg" xmlns:xlink="http://www.w3.org/1999/xlink" x="0px" y="0px"
	 viewBox="0 0 512 512" style="enable-background:new 0 0 512 512;" xml:space="preserve">
<style type="text/css">
	.st0{stroke:#000000;stroke-width:6;stroke-miterlimit:10;}
</style>
<g>
	<g>
		<g>
			<path class="st0" d="M190.7,45.9c-4.2,4.2-4.2,10.9,0,15.1c4.2,4.2,10.9,4.2,15.1,0c4.2-4.2,4.2-10.9,0-15.1
				C201.6,41.7,194.9,41.7,190.7,45.9z"/>
			<path class="st0" d="M480.2,102.2c-47.1-36.4-95.5-63.4-143.7-80.4C295.4,7.3,254,0,213.2,0C156.9,0,111.8,14.2,83.9,26.1
				C53.8,38.9,34.4,52.9,30.7,56.6c-2.9,2.9-3.9,7.2-2.5,11l9.7,28.1c1.7,4.8,6.5,7.7,11.5,7.1c0.3,0,29.2-3.8,61.1-3.8
				c23,0,42.1,2,55.8,5.8v34v128c-5.9,0-10.7,4.8-10.7,10.7v192c0,23.5,19.1,42.7,42.7,42.7c23.5,0,42.7-19.1,42.7-42.7v-192
				c0-5.9-4.8-10.7-10.7-10.7v-128v-23.6c11.1-2.6,34.2-6.9,65.3-6.9c52.7,0,105.3,11.7,156.5,34.8c4.5,2,9.9,0.7,12.9-3.3
				l17.3-22.7C485.7,112.4,484.9,105.7,480.2,102.2z M219.6,320c-5.9,0-10.7,4.8-10.7,10.7c0,5.9,4.8,10.7,10.7,10.7v21.3
				c-5.9,0-10.7,4.8-10.7,10.7s4.8,10.7,10.7,10.7v21.3c-5.9,0-10.7,4.8-10.7,10.7s4.8,10.7,10.7,10.7v42.7h0c0,8-4.5,15-11,18.7
				c-1.2-4.6-5.3-8-10.3-8s-9.1,3.4-10.3,8c-6.6-3.6-11-10.6-11-18.7v-42.7c5.9,0,10.7-4.8,10.7-10.7s-4.8-10.7-10.7-10.7V384
				c5.9,0,10.7-4.8,10.7-10.7c0-5.9-4.8-10.7-10.7-10.7v-21.3c5.9,0,10.7-4.8,10.7-10.7s-4.8-10.7-10.7-10.7v-32h42.7V320z
				 M187.6,266.7L187.6,266.7V149.4h21.3v117.3L187.6,266.7L187.6,266.7z M453,120.2c-5.6-2.4-11.3-4.7-17-6.9
				c2.1-5.5-0.6-11.6-6-13.8c-5.5-2.2-11.7,0.5-13.9,6l-0.3,0.7c-7.4-2.4-14.8-4.6-22.3-6.5c1.9-5.3-0.7-11.2-5.9-13.4
				c-5.4-2.3-11.7,0.3-14,5.7l-1.2,2.8c-7.1-1.4-14.2-2.7-21.3-3.8c2.5-5.3,0.2-11.7-5.2-14.2S334.5,76.7,332,82l-3,6.4
				c-11.2-1-22.3-1.5-33.5-1.5c-48.1,0-78,9.5-79.2,9.9c-4.4,1.4-7.4,5.5-7.4,10.2v21.1h-21.3V97c0-4.4-2.7-8.4-6.9-10
				c-16.4-6.2-40-9.4-70.2-9.4c-22.9,0-43.9,1.8-55.2,3l-4.4-12.7c7.4-5.1,22.1-14.1,42.7-22.8c25.8-10.8,67.5-23.8,119.6-23.8
				c81.7,0,164.2,30.7,245.5,91.3L453,120.2z"/>
			<path class="st0" d="M230.2,64.1c27.6,0,62.2,4.5,62.6,4.6c0.5,0.1,0.9,0.1,1.4,0.1c5.3,0,9.8-3.9,10.6-9.3
				c0.8-5.8-3.3-11.2-9.2-12c-1.5-0.2-36.4-4.8-65.4-4.8c-5.9,0-10.7,4.8-10.7,10.7S224.3,64.1,230.2,64.1z"/>
		</g>
	</g>
</g>
</svg>
