<?xml version="1.0" encoding="iso-8859-1"?>
<!-- Generator: Adobe Illustrator 19.0.0, SVG Export Plug-In . SVG Version: 6.00 Build 0)  -->
<svg version="1.1" id="Layer_1" xmlns="http://www.w3.org/2000/svg" xmlns:xlink="http://www.w3.org/1999/xlink" x="0px" y="0px"
	 viewBox="0 0 511.981 511.981" style="enable-background:new 0 0 511.981 511.981;" xml:space="preserve">
<g>
	<g>
		<g>
			<path d="M190.695,45.888c-4.172,4.164-4.172,10.914,0,15.078c4.156,4.164,10.906,4.164,15.078,0
				c4.156-4.164,4.156-10.914,0-15.078C201.6,41.724,194.851,41.724,190.695,45.888z"/>
			<path d="M480.231,102.16c-47.139-36.373-95.48-63.411-143.698-80.372C295.44,7.328,253.958,0,213.225,0
				C156.868,0,111.775,14.171,83.87,26.062C53.761,38.889,34.371,52.896,30.731,56.553c-2.891,2.883-3.875,7.164-2.547,11.023
				l9.719,28.069c1.656,4.789,6.453,7.749,11.484,7.085c0.281-0.039,29.202-3.804,61.061-3.804c23.046,0,42.124,1.992,55.795,5.78
				v34.03v127.972c-5.89,0-10.671,4.773-10.671,10.656v191.963c0,23.516,19.14,42.654,42.655,42.654
				c23.531,0,42.655-19.139,42.655-42.654V277.365c0-5.883-4.766-10.656-10.656-10.656V138.737v-23.593
				c11.109-2.602,34.171-6.891,65.278-6.891c52.687,0,105.341,11.703,156.527,34.796c4.531,2.039,9.858,0.688,12.874-3.266
				l17.296-22.726C485.747,112.394,484.872,105.738,480.231,102.16z M219.554,320.022c-5.891,0-10.656,4.779-10.656,10.67
				c0,5.891,4.765,10.672,10.656,10.672v21.312c-5.891,0-10.656,4.781-10.656,10.672s4.765,10.67,10.656,10.67v21.312
				c-5.891,0-10.656,4.781-10.656,10.672s4.765,10.672,10.656,10.672v42.654h-0.001c0,8.016-4.453,15.016-11.015,18.656
				c-1.188-4.594-5.344-8-10.312-8s-9.125,3.406-10.312,8c-6.562-3.641-11.015-10.641-11.015-18.656v-42.654
				c5.89,0,10.671-4.781,10.671-10.672s-4.781-10.672-10.671-10.672v-21.312c5.89,0,10.671-4.779,10.671-10.67
				c0-5.891-4.781-10.672-10.671-10.672v-21.312c5.89,0,10.671-4.781,10.671-10.672s-4.781-10.67-10.671-10.67v-31.984h42.655
				V320.022z M187.57,266.709L187.57,266.709V149.401h21.328v117.308H187.57z M453.014,120.183
				c-5.641-2.422-11.312-4.703-16.984-6.859c2.109-5.453-0.562-11.602-6-13.765c-5.484-2.18-11.688,0.5-13.859,5.968l-0.281,0.719
				c-7.405-2.398-14.827-4.57-22.279-6.522c1.875-5.289-0.672-11.188-5.906-13.391c-5.438-2.281-11.688,0.273-13.969,5.711
				l-1.156,2.766c-7.078-1.445-14.172-2.703-21.28-3.758c2.499-5.336,0.188-11.68-5.156-14.172s-11.687-0.18-14.171,5.156
				l-2.969,6.383c-11.156-0.992-22.328-1.5-33.5-1.5c-48.06,0-77.965,9.461-79.215,9.859c-4.406,1.422-7.39,5.522-7.39,10.155
				v21.141H187.57V96.973c0-4.43-2.734-8.398-6.875-9.969c-16.421-6.242-40.045-9.406-70.248-9.406
				c-22.875,0-43.874,1.805-55.186,2.984l-4.39-12.694c7.39-5.094,22.108-14.125,42.749-22.797
				c25.812-10.843,67.514-23.765,119.605-23.765c81.668,0,164.213,30.71,245.54,91.317L453.014,120.183z"/>
			<path d="M230.224,64.092c27.562,0,62.231,4.531,62.591,4.57c0.469,0.062,0.938,0.094,1.406,0.094
				c5.266,0,9.844-3.906,10.562-9.266c0.766-5.844-3.344-11.203-9.188-11.969c-1.469-0.195-36.389-4.758-65.372-4.758
				c-5.89,0-10.671,4.773-10.671,10.664S224.334,64.092,230.224,64.092z"/>
		</g>
	</g>
</g>
<g>
</g>
<g>
</g>
<g>
</g>
<g>
</g>
<g>
</g>
<g>
</g>
<g>
</g>
<g>
</g>
<g>
</g>
<g>
</g>
<g>
</g>
<g>
</g>
<g>
</g>
<g>
</g>
<g>
</g>
</svg>
