<?xml version="1.0" encoding="utf-8"?>
<!-- Generator: Adobe Illustrator 22.0.1, SVG Export Plug-In . SVG Version: 6.00 Build 0)  -->
<svg version="1.1" id="Capa_1" xmlns="http://www.w3.org/2000/svg" xmlns:xlink="http://www.w3.org/1999/xlink" x="0px" y="0px"
	 viewBox="0 0 512 512" style="enable-background:new 0 0 512 512;" xml:space="preserve">
<style type="text/css">
	.st0{fill:#E50027;}
	.st1{stroke:#000000;stroke-width:10;stroke-miterlimit:10;}
</style>
<path class="st0" d="M501.4,368.9L320.6,66.2c-13.8-22.8-37.8-36.6-64.6-36.6s-50.8,13.8-64.6,36.6L10.6,368.9
	c-13.8,23.7-14.1,52-0.6,75.7c13.5,23.7,37.8,37.8,65.2,37.8H437c27.3,0,51.7-14.1,65.2-37.8C515.6,420.9,515.3,392.6,501.4,368.9z"
	/>
<path class="st0" d="M99.2,441c-14.4,0-26.7-7.2-33.9-19.6c-7.1-12.5-7-26.9,0.4-39.6l156.6-262.1c7.2-11.8,19.8-19,33.6-19
	s26.4,7.2,33.7,19.2L446.2,382c7.3,12.5,7.4,26.9,0.3,39.4S427.1,441,412.6,441H99.2L99.2,441z"/>
<path class="st1" d="M286,152.1v120.1c0,16.5-13.5,30-30,30s-30-13.5-30-30V152.1c0-16.5,13.5-30,30-30S286,135.6,286,152.1z"/>
<path class="st1" d="M256,346.3c-20.7,0-37.4,16.7-37.4,37.4c0,20.7,16.7,37.4,37.4,37.4s37.4-16.7,37.4-37.4S276.7,346.3,256,346.3
	z"/>
</svg>
