<?xml version="1.0" encoding="utf-8"?>
<!-- Generator: Adobe Illustrator 22.0.1, SVG Export Plug-In . SVG Version: 6.00 Build 0)  -->
<svg version="1.1" id="Layer_1" xmlns="http://www.w3.org/2000/svg" xmlns:xlink="http://www.w3.org/1999/xlink" x="0px" y="0px"
	 viewBox="0 0 512 512" style="enable-background:new 0 0 512 512;" xml:space="preserve">
<style type="text/css">
	.st0{stroke:#000000;stroke-width:2;stroke-miterlimit:10;}
</style>
<g>
	<g>
		<path class="st0" d="M483.8,137.7c-3.6-14.9-10.4-26.5-20.1-34.5c-15.9-13-36.1-19.5-60-19.5c-29.8,0-65.8,10.4-107.1,30.8
			c-30.3,15-52.7,30.3-55.1,32c-8.7,6-13.9,15.8-13.9,26.4v40.5c-5.9,0-10.7,4.8-10.7,10.7v85.3c0,5.9,4.8,10.7,10.7,10.7v50.1
			c0,8.5,3.3,16.5,9.3,22.5c0.6,0.6,15.7,15.8,35.8,31.2c30.7,23.5,56.4,34.9,78.8,34.9c2.9,0,5.8-0.2,8.6-0.6
			c13-1.8,25.6-9.4,37.4-22.5c9.7-10.8,19.3-25.6,29.3-45.3c15.3-30.1,30.5-70.2,41.7-110.2c10.1-36.1,16.4-69.5,18.1-96.6
			C487.7,165.2,486.8,150.2,483.8,137.7z M248.9,192h21.3v21.3h-21.3V192z M245.8,280.5c-2.1-2.1-4.8-3.1-7.5-3.1V256
			c2.7,0,5.5-1,7.5-3.1c4.2-4.2,4.2-10.9,0-15.1c-2.1-2.1-4.8-3.1-7.5-3.1H281c-2.7,0-5.5,1-7.5,3.1c-4.2,4.2-4.2,10.9,0,15.1
			c2.1,2.1,4.8,3.1,7.5,3.1v21.3c-2.7,0-5.5,1-7.5,3.1c-4.2,4.2-4.2,10.9,0,15.1c2.1,2.1,4.8,3.1,7.5,3.1h-42.7c2.7,0,5.5-1,7.5-3.1
			C250,291.4,250,284.6,245.8,280.5z M248.9,320h21.3v32h-21.3V320z M465.2,182.3c-1.6,25.6-7.6,57.5-17.3,92.2
			c-10.8,38.6-25.5,77.3-40.2,106.2c-18.2,35.7-34.7,54.1-50.6,56.3c-1.8,0.3-3.7,0.4-5.6,0.4c0,0,0,0,0,0
			c-17.3,0-39.4-10.3-65.8-30.5c-18.8-14.4-33-28.7-33.6-29.3c-1.2-1.2-2.1-2.7-2.6-4.3h29.1c5.4,4.8,12.4,10.8,20.2,16.8
			c21.9,16.7,40.6,26,52.7,26c0,0,0,0,0,0c1,0,1.9-0.1,2.7-0.2c4.7-0.6,17.2-10.8,34.5-44.9c14.1-27.7,28.2-65,38.7-102.3
			c9.2-32.8,15.1-64,16.6-87.8c2.2-34.2-5-42.8-7.2-44.6c-8.1-6.6-19.2-10-33-10c-40.9,0-93.8,28.2-120.7,44.3h-33.8
			c0.5-2.7,2.1-5.1,4.4-6.6c3.5-2.4,86.5-59,150.1-59c18.9,0,34.5,5,46.5,14.7C462.4,129.6,467.3,150.1,465.2,182.3z M291.6,213.3
			v-23c10.2-6.2,25.5-15,42.7-22.9c27.8-12.9,51.8-19.8,69.4-19.8c5.3,0,12.3,0.7,17.5,3.7c0.9,3,2.5,11,1.5,28.2
			c-1.4,22.3-7,51.9-15.9,83.4c-10.1,36-23.6,71.9-37.1,98.4c-10.3,20.3-17.7,29.3-21.2,32.9c-6-1.5-18.3-7-36.8-21.1
			c-7.8-6-14.8-12-20.1-16.8V320c5.9,0,10.7-4.8,10.7-10.7V224C302.3,218.1,297.5,213.3,291.6,213.3z"/>
	</g>
</g>
<g>
	<g>
		<path d="M267.2,259.1c-4.2-4.2-10.9-4.2-15.1,0c-4.2,4.2-4.2,10.9,0,15.1c4.2,4.2,10.9,4.2,15.1,0
			C271.3,270,271.3,263.3,267.2,259.1z"/>
	</g>
</g>
<g>
	<g>
		<path class="st0" d="M99.6,0C58.5,0,25,33.5,25,74.7V480c0,17.7,14.4,32,32,32s32-14.3,32-32V74.7C89,68.8,93.7,64,99.6,64
			c5.9,0,10.7,4.8,10.7,10.7V480c0,17.7,14.4,32,32,32c17.7,0,32-14.3,32-32V74.7C174.3,33.5,140.8,0,99.6,0z M46.3,100.4l21.3,21.3
			v55.2l-21.3-21.3C46.3,155.6,46.3,100.4,46.3,100.4z M46.3,185.8l21.3,21.3v55.2l-21.3-21.3C46.3,240.9,46.3,185.8,46.3,185.8z
			 M46.3,271.1l21.3,21.3v55.2l-21.3-21.3C46.3,326.2,46.3,271.1,46.3,271.1z M46.3,356.4l21.3,21.3v55.2l-21.3-21.3V356.4z
			 M67.6,480c0,5.9-4.8,10.7-10.7,10.7s-10.7-4.8-10.7-10.7v-38.2l21.3,21.3V480z M99.6,42.7c-17.7,0-32,14.4-32,32v16.9L46.5,70.4
			C48.6,43,71.6,21.3,99.6,21.3c28,0,51,21.7,53.1,49.1l-21.1,21.1V74.7C131.6,57,117.3,42.7,99.6,42.7z M153,480
			c0,5.9-4.8,10.7-10.7,10.7c-5.9,0-10.7-4.8-10.7-10.7v-16.9l21.3-21.3L153,480L153,480z M153,411.6l-21.3,21.3v-55.2l21.3-21.3
			V411.6z M153,326.2l-21.3,21.3v-55.2l21.3-21.3V326.2z M153,240.9l-21.3,21.3v-55.2l21.3-21.3V240.9z M153,155.6l-21.3,21.3v-55.2
			l21.3-21.3V155.6z"/>
	</g>
</g>
</svg>
